# xmcd
#
# Track frame offsets: 
#        150
#        14282
#        31694
#        44146
#        60645
#        76124
#        90381
#        104508
#        134732
#
# Disc length: 2030 seconds
#
# Revision: 0
# Processed by: cddbd v1.5.2PL0 Copyright (c) Steve Scherf et al.
# Submitted via: ExactAudioCopy v1.3
#
DISCID=6e07ec09
DTITLE=The Powder Blues - Uncut
DYEAR=1980
DGENRE=Modern Electric Blues, Blues Rock
TTITLE0=Boppin With The Blues
TTITLE1=Hear That Guitar Ring
TTITLE2=Just A Little
TTITLE3=The Rockchopper
TTITLE4=Doin' It Right
TTITLE5=Buzzard Luck
TTITLE6=What've I Been Drinkin
TTITLE7=Personal Manager
TTITLE8=Sweet Little Girl
EXTD=
EXTT0=
EXTT1=
EXTT2=
EXTT3=
EXTT4=
EXTT5=
EXTT6=
EXTT7=
EXTT8=
PLAYORDER=
